<?xml version="1.0" encoding="utf-8"?>
<svg viewBox="29.873 185.21 186.764 159.605" xmlns="http://www.w3.org/2000/svg">
  <g id="Page-1" stroke="none" stroke-width="1" fill="none" fill-rule="evenodd" transform="matrix(3.4993240833282475, 0, 0, 3.4993240833282475, 54.43889398690743, 202.55733330718652)" style="">
    <path d="M 38.728 11.456 C 38.728 11.456 39.181 25.275 39 24.432 C 38.819 23.589 38.728 22.656 38.728 21.632 L 38.728 11.456 Z" id="uick." fill="#3b506c" fill-rule="nonzero"/>
    <path d="M17.2445652,0 C17.3478261,0 17.5543478,0 17.6576087,0 C17.7608696,0 17.9673913,0 18.0706522,0 C27.4673913,0 35.0054348,7.66946779 35.0054348,17.1008403 C35.0054348,17.3081232 35.0054348,17.5154062 35.0054348,17.8263305 C34.9021739,20.210084 34.2826087,22.4901961 33.3532609,24.4593838 L22.7173913,24.4593838 C24.2663043,22.697479 25.298913,20.0028011 25.298913,17.1008403 C25.298913,17.1008403 25.298913,16.9971989 25.298913,16.9971989 C25.298913,16.6862745 25.298913,16.4789916 25.298913,16.1680672 C25.298913,11.1932773 21.8913043,7.1512605 17.7608696,7.1512605 C17.6576087,7.1512605 17.6576087,7.1512605 17.5543478,7.1512605 C17.451087,7.1512605 17.451087,7.1512605 17.3478261,7.1512605 C13.2173913,7.1512605 9.80978261,11.1932773 9.80978261,16.1680672 C9.80978261,16.4789916 9.80978261,16.6862745 9.80978261,16.9971989 C9.80978261,16.9971989 9.80978261,17.1008403 9.80978261,17.1008403 C9.80978261,22.4901961 13.2173913,26.8431373 17.3478261,26.8431373 C17.451087,26.8431373 17.5543478,26.8431373 17.6576087,26.8431373 L18.2771739,26.8431373 L32.5271739,26.8431373 L38,32.4397759 L33.25,37 L30.5652174,34.3053221 L18.2771739,34.3053221 C17.8641304,34.3053221 17.451087,34.3053221 17.0380435,34.3053221 C16.7282609,34.3053221 16.3152174,34.3053221 15.9021739,34.2016807 C7.22826087,33.6834734 0.413043478,26.6358543 0,17.8263305 C0,17.6190476 0,17.4117647 0,17.1008403 C0,7.66946779 7.64130435,0 16.9347826,0 L17.2445652,0 Z" id="Q" fill="#0C66FF" fill-rule="nonzero"/>
  </g>
</svg>